<svg width="147" height="40" viewBox="0 0 147 40" fill="none" xmlns="http://www.w3.org/2000/svg">
<g clip-path="url(#clip0_5197_52423)">
<path d="M6.01514 6.76562V33.2318H32.4813V8.72051C28.0828 13.0062 24.3986 17.1416 19.0978 27.931C17.452 28.8402 16.519 29.3712 14.361 31.3521C12.3721 25.2832 11.3223 21.7646 7.25574 19.3972C7.95945 18.0717 10.0001 16.9582 10.4888 16.8032C12.0302 16.3145 13.6195 16.3694 16.4663 22.7055C21.5877 15.0222 24.544 11.3026 30.1129 6.76562H6.01514Z" fill="#FC7979"/>
<path d="M36.0898 29.4597V10.7862H45.1124V12.7921H38.0006V18.4726H45.1124V20.4786H38.0006V29.4597H36.0898Z" fill="#637381"/>
<path d="M48.577 29.4597V15.4546H50.3953V29.4597H48.577ZM49.5016 13.016C49.1472 13.016 48.8416 12.917 48.5847 12.6313C48.3331 12.3456 48.2072 12.0627 48.2072 11.6615C48.2072 11.2603 48.3331 11.0415 48.5847 10.7558C48.8416 10.4701 49.1472 10.375 49.5016 10.375C49.856 10.375 50.159 10.4701 50.4107 10.7558C50.6676 11.0415 50.796 11.2603 50.796 11.6615C50.796 12.0627 50.6676 12.3456 50.4107 12.6313C50.159 12.917 49.856 13.016 49.5016 13.016Z" fill="#637381"/>
<path d="M54.0264 29.4597V15.4546H55.783V17.57H55.9063C56.122 16.877 56.5124 16.3147 57.0774 15.8831C57.6424 15.4515 58.2793 15.2358 58.9881 15.2358C59.1217 15.2358 59.2886 15.2388 59.4889 15.2449C59.6892 15.251 59.8408 15.2601 59.9435 15.2722V17.4605C59.8819 17.4423 59.7406 17.4149 59.5197 17.3785C59.304 17.3359 59.0754 17.3146 58.834 17.3146C58.2588 17.3146 57.7451 17.4575 57.2931 17.7432C56.8463 18.0228 56.4918 18.4118 56.2299 18.9103C55.9731 19.4027 55.8447 19.9649 55.8447 20.5971V29.4597H54.0264Z" fill="#637381"/>
<path d="M70.1807 18.5912L68.5473 19.1382C68.4446 18.8161 68.2931 18.503 68.0927 18.1991C67.8976 17.8891 67.6305 17.6338 67.2915 17.4332C66.9525 17.2326 66.5184 17.1323 65.9894 17.1323C65.2652 17.1323 64.6616 17.3298 64.1788 17.725C63.7011 18.114 63.4623 18.6094 63.4623 19.2112C63.4623 19.7461 63.6267 20.1686 63.9554 20.4786C64.2841 20.7886 64.7978 21.0469 65.4963 21.2536L67.2529 21.7642C68.311 22.0681 69.0995 22.5331 69.6182 23.1592C70.137 23.7793 70.3964 24.5786 70.3964 25.5573C70.3964 26.3596 70.2012 27.0769 69.8109 27.7091C69.4256 28.3413 68.8863 28.8397 68.1929 29.2044C67.4995 29.5692 66.6931 29.7515 65.7737 29.7515C64.5666 29.7515 63.5676 29.4415 62.7766 28.8215C61.9856 28.2015 61.4848 27.2958 61.2742 26.1043L63 25.5937C63.1644 26.3475 63.4751 26.9128 63.9323 27.2897C64.3945 27.6666 64.9981 27.855 65.7428 27.855C66.5904 27.855 67.2632 27.6422 67.7614 27.2167C68.2648 26.7852 68.5165 26.2685 68.5165 25.6667C68.5165 25.1804 68.3727 24.7731 68.085 24.4449C67.7974 24.1106 67.3557 23.8613 66.7599 23.6972L64.7875 23.1501C63.7037 22.8462 62.9076 22.3751 62.3991 21.7368C61.8957 21.0925 61.644 20.2871 61.644 19.3206C61.644 18.5304 61.8315 17.8313 62.2064 17.2235C62.5865 16.6156 63.1027 16.1384 63.7551 15.792C64.4125 15.4455 65.1573 15.2722 65.9894 15.2722C67.1605 15.2722 68.0799 15.5762 68.7476 16.184C69.4205 16.7919 69.8982 17.5943 70.1807 18.5912Z" fill="#637381"/>
<path d="M79.2477 15.4911V17.3146H76.8384H75.0202H72.6312V15.4911H75.0202H76.8384H79.2477Z" fill="#637381"/>
<path d="M76.8384 17.3146H75.0202V29.2044H76.8384V17.3146Z" fill="#637381"/>
<path d="M75.0202 15.4911H76.8384V10.6312H75.0202V15.4911Z" fill="#637381"/>
<path d="M99.4142 21.0815V29.4603H97.1426V15.532H99.3372V17.7083H99.5297C99.8762 17.001 100.402 16.4327 101.108 16.0035C101.814 15.5683 102.725 15.3506 103.842 15.3506C104.843 15.3506 105.719 15.5441 106.47 15.931C107.22 16.3118 107.804 16.8922 108.221 17.672C108.638 18.4458 108.847 19.4251 108.847 20.61V29.4603H106.575V20.7551C106.575 19.6609 106.274 18.8085 105.671 18.1979C105.067 17.5813 104.24 17.273 103.187 17.273C102.462 17.273 101.814 17.4211 101.243 17.7173C100.678 18.0136 100.232 18.4458 99.9051 19.0141C99.5778 19.5823 99.4142 20.2715 99.4142 21.0815Z" fill="#063489"/>
<path d="M112.697 29.4603V15.532H114.892V17.6357H115.046C115.315 16.9466 115.803 16.3874 116.509 15.9582C117.215 15.529 118.01 15.3144 118.896 15.3144C119.063 15.3144 119.271 15.3174 119.521 15.3234C119.772 15.3295 119.961 15.3385 120.089 15.3506V17.5269C120.012 17.5088 119.836 17.4816 119.56 17.4453C119.29 17.403 119.005 17.3818 118.703 17.3818C117.985 17.3818 117.343 17.5239 116.778 17.808C116.22 18.0861 115.777 18.473 115.45 18.9687C115.129 19.4584 114.969 20.0176 114.969 20.6463V29.4603H112.697Z" fill="#063489"/>
<path d="M128.188 29.7142C126.853 29.7142 125.682 29.4149 124.675 28.8164C123.674 28.218 122.891 27.3807 122.326 26.3046C121.768 25.2286 121.489 23.9712 121.489 22.5324C121.489 21.0815 121.768 19.815 122.326 18.7329C122.891 17.6508 123.674 16.8106 124.675 16.2121C125.682 15.6136 126.853 15.3144 128.188 15.3144C129.523 15.3144 130.69 15.6136 131.691 16.2121C132.699 16.8106 133.482 17.6508 134.04 18.7329C134.605 19.815 134.887 21.0815 134.887 22.5324C134.887 23.9712 134.605 25.2286 134.04 26.3046C133.482 27.3807 132.699 28.218 131.691 28.8164C130.69 29.4149 129.523 29.7142 128.188 29.7142ZM128.188 27.7918C129.202 27.7918 130.036 27.5469 130.69 27.0573C131.345 26.5676 131.829 25.9238 132.144 25.1258C132.458 24.3278 132.615 23.4634 132.615 22.5324C132.615 21.6014 132.458 20.7339 132.144 19.9299C131.829 19.1259 131.345 18.476 130.69 17.9803C130.036 17.4846 129.202 17.2367 128.188 17.2367C127.174 17.2367 126.34 17.4846 125.685 17.9803C125.031 18.476 124.546 19.1259 124.232 19.9299C123.917 20.7339 123.76 21.6014 123.76 22.5324C123.76 23.4634 123.917 24.3278 124.232 25.1258C124.546 25.9238 125.031 26.5676 125.685 27.0573C126.34 27.5469 127.174 27.7918 128.188 27.7918Z" fill="#063489"/>
<path d="M83.1577 29.4606V10.8047H93.5874V12.8087H85.1297V18.322H93.5874V20.3261H85.1297V27.4565L93.5874 27.4562V29.4603L83.1577 29.4606Z" fill="#063489"/>
<path d="M140.773 10.8047V29.4606H138.897V10.8047H140.773Z" fill="#063489"/>
<path d="M146.388 10.8047V29.4606H144.511V10.8047H146.388Z" fill="#063489"/>
</g>
<defs>
<clipPath id="clip0_5197_52423">
<rect width="146.387" height="38.4962" fill="white" transform="translate(0 0.75)"/>
</clipPath>
</defs>
</svg>
